# xmcd CD database file
#
# Track frame offsets:
#	150
#	109607
#	214709
#	243227
#
# Disc length: 3600 seconds
#
# Revision: 0
# Processed by: cddbd v1.5.2PL0 Copyright (c) Steve Scherf et al.
# Submitted via: jetAudio 7
#
DISCID=2c0e0e04
DTITLE=上官萍  - 淨宗心靈音樂會
DYEAR=1900
DGENRE=장르 없음
TTITLE0=憨山大師費閑歌
TTITLE1=順治皇帝出家自嘆詩
TTITLE2=憨山大師費閑歌 (伴唱音樂)
TTITLE3=順治皇帝出家自嘆詩 (伴唱音樂)
EXTD=
EXTT0=
EXTT1=
EXTT2=
EXTT3=
PLAYORDER=
